<?xml version="1.0" encoding="UTF-8"?>
<svg width="147px" height="111px" viewBox="0 0 147 111" version="1.1" xmlns="http://www.w3.org/2000/svg" xmlns:xlink="http://www.w3.org/1999/xlink">
    <!-- Generator: Sketch 48.1 (47250) - http://www.bohemiancoding.com/sketch -->
    <title>camera</title>
    <desc>Created with Sketch.</desc>
    <defs></defs>
    <g id="Page-1" stroke="none" stroke-width="1" fill="none" fill-rule="evenodd">
        <g id="camera" fill="#DADADA" fill-rule="nonzero">
            <path d="M73.5,38 C60.575,38 50,48.8 50,62 C50,75.2 60.575,86 73.5,86 C86.425,86 97,75.2 97,62 C97,48.8 86.425,38 73.5,38 Z" id="Shape"></path>
            <path d="M122.5,16.5823171 L105.265517,16.5823171 L105.096552,15.7362805 C102.562069,6.42987805 94.2827586,0 84.6517241,0 L62.5172414,0 C52.8862069,0 44.6068966,6.42987805 42.0724138,15.7362805 L41.7344828,16.5823171 L24.5,16.5823171 C10.9827586,16.5823171 0,27.5807927 0,41.117378 L0,86.464939 C0,100.001524 10.9827586,111 24.5,111 L122.5,111 C136.017241,111 147,100.001524 147,86.464939 L147,41.117378 C147,27.5807927 136.017241,16.5823171 122.5,16.5823171 Z M73.5,95.6021341 C54.7448276,95.6021341 39.537931,80.3734756 39.537931,61.5914634 C39.537931,42.8094512 54.7448276,27.5807927 73.5,27.5807927 C92.2551724,27.5807927 107.462069,42.8094512 107.462069,61.5914634 C107.462069,80.3734756 92.2551724,95.6021341 73.5,95.6021341 Z" id="Shape"></path>
        </g>
    </g>
</svg>